<?xml version="1.0" encoding="utf-8" standalone="no"?>
<!DOCTYPE svg PUBLIC "-//W3C//DTD SVG 1.1//EN"
  "http://www.w3.org/Graphics/SVG/1.1/DTD/svg11.dtd">
<svg height="720pt" version="1.1" viewBox="0 0 1152 720" width="1152pt" xmlns="http://www.w3.org/2000/svg" xmlns:xlink="http://www.w3.org/1999/xlink">
 <metadata>
  <rdf:RDF xmlns:cc="http://creativecommons.org/ns#" xmlns:dc="http://purl.org/dc/elements/1.1/" xmlns:rdf="http://www.w3.org/1999/02/22-rdf-syntax-ns#">
   <cc:Work>
    <dc:type rdf:resource="http://purl.org/dc/dcmitype/StillImage"/>
    <dc:date>2022-04-27T14:58:56.422443</dc:date>
    <dc:format>image/svg+xml</dc:format>
    <dc:creator>
     <cc:Agent>
      <dc:title>Matplotlib v3.4.3, https://matplotlib.org/</dc:title>
     </cc:Agent>
    </dc:creator>
   </cc:Work>
  </rdf:RDF>
 </metadata>
 <defs>
  <style type="text/css">*{stroke-linecap:butt;stroke-linejoin:round;}</style>
 </defs>
 <g id="figure_1">
  <g id="patch_1">
   <path d="M 0 720 
L 1152 720 
L 1152 0 
L 0 0 
z
" style="fill:#ffffff;"/>
  </g>
  <g id="axes_1">
   <g id="patch_2">
    <path d="M 144 640.8 
L 1036.8 640.8 
L 1036.8 86.4 
L 144 86.4 
z
" style="fill:#ffffff;"/>
   </g>
   <g id="matplotlib.axis_1">
    <g id="xtick_1">
     <g id="line2d_1">
      <path clip-path="url(#pbabc284c38)" d="M 144 640.8 
L 144 86.4 
" style="fill:none;stroke:#000000;stroke-linecap:square;stroke-width:2;"/>
     </g>
     <g id="line2d_2">
      <defs>
       <path d="M 0 0 
L 0 3.5 
" id="mb0d87d3848" style="stroke:#000000;stroke-width:0.8;"/>
      </defs>
      <g>
       <use style="stroke:#000000;stroke-width:0.8;" x="144" xlink:href="#mb0d87d3848" y="640.8"/>
      </g>
     </g>
     <g id="text_1">
      <!-- 0 -->
      <g transform="translate(140.81875 655.398438)scale(0.1 -0.1)">
       <defs>
        <path d="M 2034 4250 
Q 1547 4250 1301 3770 
Q 1056 3291 1056 2328 
Q 1056 1369 1301 889 
Q 1547 409 2034 409 
Q 2525 409 2770 889 
Q 3016 1369 3016 2328 
Q 3016 3291 2770 3770 
Q 2525 4250 2034 4250 
z
M 2034 4750 
Q 2819 4750 3233 4129 
Q 3647 3509 3647 2328 
Q 3647 1150 3233 529 
Q 2819 -91 2034 -91 
Q 1250 -91 836 529 
Q 422 1150 422 2328 
Q 422 3509 836 4129 
Q 1250 4750 2034 4750 
z
" id="DejaVuSans-30" transform="scale(0.015625)"/>
       </defs>
       <use xlink:href="#DejaVuSans-30"/>
      </g>
     </g>
    </g>
    <g id="xtick_2">
     <g id="line2d_3">
      <path clip-path="url(#pbabc284c38)" d="M 306.634401 640.8 
L 306.634401 86.4 
" style="fill:none;stroke:#000000;stroke-linecap:square;stroke-width:2;"/>
     </g>
     <g id="line2d_4">
      <g>
       <use style="stroke:#000000;stroke-width:0.8;" x="306.634401" xlink:href="#mb0d87d3848" y="640.8"/>
      </g>
     </g>
     <g id="text_2">
      <!-- 10 -->
      <g transform="translate(300.271901 655.398438)scale(0.1 -0.1)">
       <defs>
        <path d="M 794 531 
L 1825 531 
L 1825 4091 
L 703 3866 
L 703 4441 
L 1819 4666 
L 2450 4666 
L 2450 531 
L 3481 531 
L 3481 0 
L 794 0 
L 794 531 
z
" id="DejaVuSans-31" transform="scale(0.015625)"/>
       </defs>
       <use xlink:href="#DejaVuSans-31"/>
       <use x="63.623047" xlink:href="#DejaVuSans-30"/>
      </g>
     </g>
    </g>
    <g id="xtick_3">
     <g id="line2d_5">
      <path clip-path="url(#pbabc284c38)" d="M 469.268801 640.8 
L 469.268801 86.4 
" style="fill:none;stroke:#000000;stroke-linecap:square;stroke-width:2;"/>
     </g>
     <g id="line2d_6">
      <g>
       <use style="stroke:#000000;stroke-width:0.8;" x="469.268801" xlink:href="#mb0d87d3848" y="640.8"/>
      </g>
     </g>
     <g id="text_3">
      <!-- 20 -->
      <g transform="translate(462.906301 655.398438)scale(0.1 -0.1)">
       <defs>
        <path d="M 1228 531 
L 3431 531 
L 3431 0 
L 469 0 
L 469 531 
Q 828 903 1448 1529 
Q 2069 2156 2228 2338 
Q 2531 2678 2651 2914 
Q 2772 3150 2772 3378 
Q 2772 3750 2511 3984 
Q 2250 4219 1831 4219 
Q 1534 4219 1204 4116 
Q 875 4013 500 3803 
L 500 4441 
Q 881 4594 1212 4672 
Q 1544 4750 1819 4750 
Q 2544 4750 2975 4387 
Q 3406 4025 3406 3419 
Q 3406 3131 3298 2873 
Q 3191 2616 2906 2266 
Q 2828 2175 2409 1742 
Q 1991 1309 1228 531 
z
" id="DejaVuSans-32" transform="scale(0.015625)"/>
       </defs>
       <use xlink:href="#DejaVuSans-32"/>
       <use x="63.623047" xlink:href="#DejaVuSans-30"/>
      </g>
     </g>
    </g>
    <g id="xtick_4">
     <g id="line2d_7">
      <path clip-path="url(#pbabc284c38)" d="M 631.903202 640.8 
L 631.903202 86.4 
" style="fill:none;stroke:#000000;stroke-linecap:square;stroke-width:2;"/>
     </g>
     <g id="line2d_8">
      <g>
       <use style="stroke:#000000;stroke-width:0.8;" x="631.903202" xlink:href="#mb0d87d3848" y="640.8"/>
      </g>
     </g>
     <g id="text_4">
      <!-- 30 -->
      <g transform="translate(625.540702 655.398438)scale(0.1 -0.1)">
       <defs>
        <path d="M 2597 2516 
Q 3050 2419 3304 2112 
Q 3559 1806 3559 1356 
Q 3559 666 3084 287 
Q 2609 -91 1734 -91 
Q 1441 -91 1130 -33 
Q 819 25 488 141 
L 488 750 
Q 750 597 1062 519 
Q 1375 441 1716 441 
Q 2309 441 2620 675 
Q 2931 909 2931 1356 
Q 2931 1769 2642 2001 
Q 2353 2234 1838 2234 
L 1294 2234 
L 1294 2753 
L 1863 2753 
Q 2328 2753 2575 2939 
Q 2822 3125 2822 3475 
Q 2822 3834 2567 4026 
Q 2313 4219 1838 4219 
Q 1578 4219 1281 4162 
Q 984 4106 628 3988 
L 628 4550 
Q 988 4650 1302 4700 
Q 1616 4750 1894 4750 
Q 2613 4750 3031 4423 
Q 3450 4097 3450 3541 
Q 3450 3153 3228 2886 
Q 3006 2619 2597 2516 
z
" id="DejaVuSans-33" transform="scale(0.015625)"/>
       </defs>
       <use xlink:href="#DejaVuSans-33"/>
       <use x="63.623047" xlink:href="#DejaVuSans-30"/>
      </g>
     </g>
    </g>
    <g id="xtick_5">
     <g id="line2d_9">
      <path clip-path="url(#pbabc284c38)" d="M 794.537602 640.8 
L 794.537602 86.4 
" style="fill:none;stroke:#000000;stroke-linecap:square;stroke-width:2;"/>
     </g>
     <g id="line2d_10">
      <g>
       <use style="stroke:#000000;stroke-width:0.8;" x="794.537602" xlink:href="#mb0d87d3848" y="640.8"/>
      </g>
     </g>
     <g id="text_5">
      <!-- 40 -->
      <g transform="translate(788.175102 655.398438)scale(0.1 -0.1)">
       <defs>
        <path d="M 2419 4116 
L 825 1625 
L 2419 1625 
L 2419 4116 
z
M 2253 4666 
L 3047 4666 
L 3047 1625 
L 3713 1625 
L 3713 1100 
L 3047 1100 
L 3047 0 
L 2419 0 
L 2419 1100 
L 313 1100 
L 313 1709 
L 2253 4666 
z
" id="DejaVuSans-34" transform="scale(0.015625)"/>
       </defs>
       <use xlink:href="#DejaVuSans-34"/>
       <use x="63.623047" xlink:href="#DejaVuSans-30"/>
      </g>
     </g>
    </g>
    <g id="xtick_6">
     <g id="line2d_11">
      <path clip-path="url(#pbabc284c38)" d="M 957.172003 640.8 
L 957.172003 86.4 
" style="fill:none;stroke:#000000;stroke-linecap:square;stroke-width:2;"/>
     </g>
     <g id="line2d_12">
      <g>
       <use style="stroke:#000000;stroke-width:0.8;" x="957.172003" xlink:href="#mb0d87d3848" y="640.8"/>
      </g>
     </g>
     <g id="text_6">
      <!-- 50 -->
      <g transform="translate(950.809503 655.398438)scale(0.1 -0.1)">
       <defs>
        <path d="M 691 4666 
L 3169 4666 
L 3169 4134 
L 1269 4134 
L 1269 2991 
Q 1406 3038 1543 3061 
Q 1681 3084 1819 3084 
Q 2600 3084 3056 2656 
Q 3513 2228 3513 1497 
Q 3513 744 3044 326 
Q 2575 -91 1722 -91 
Q 1428 -91 1123 -41 
Q 819 9 494 109 
L 494 744 
Q 775 591 1075 516 
Q 1375 441 1709 441 
Q 2250 441 2565 725 
Q 2881 1009 2881 1497 
Q 2881 1984 2565 2268 
Q 2250 2553 1709 2553 
Q 1456 2553 1204 2497 
Q 953 2441 691 2322 
L 691 4666 
z
" id="DejaVuSans-35" transform="scale(0.015625)"/>
       </defs>
       <use xlink:href="#DejaVuSans-35"/>
       <use x="63.623047" xlink:href="#DejaVuSans-30"/>
      </g>
     </g>
    </g>
    <g id="xtick_7">
     <g id="line2d_13">
      <path clip-path="url(#pbabc284c38)" d="M 176.52688 640.8 
L 176.52688 86.4 
" style="fill:none;stroke:#000000;stroke-dasharray:3.7,1.6;stroke-dashoffset:0;"/>
     </g>
     <g id="line2d_14">
      <defs>
       <path d="M 0 0 
L 0 2 
" id="me4b62c8cc2" style="stroke:#000000;stroke-width:0.6;"/>
      </defs>
      <g>
       <use style="stroke:#000000;stroke-width:0.6;" x="176.52688" xlink:href="#me4b62c8cc2" y="640.8"/>
      </g>
     </g>
    </g>
    <g id="xtick_8">
     <g id="line2d_15">
      <path clip-path="url(#pbabc284c38)" d="M 209.05376 640.8 
L 209.05376 86.4 
" style="fill:none;stroke:#000000;stroke-dasharray:3.7,1.6;stroke-dashoffset:0;"/>
     </g>
     <g id="line2d_16">
      <g>
       <use style="stroke:#000000;stroke-width:0.6;" x="209.05376" xlink:href="#me4b62c8cc2" y="640.8"/>
      </g>
     </g>
    </g>
    <g id="xtick_9">
     <g id="line2d_17">
      <path clip-path="url(#pbabc284c38)" d="M 241.58064 640.8 
L 241.58064 86.4 
" style="fill:none;stroke:#000000;stroke-dasharray:3.7,1.6;stroke-dashoffset:0;"/>
     </g>
     <g id="line2d_18">
      <g>
       <use style="stroke:#000000;stroke-width:0.6;" x="241.58064" xlink:href="#me4b62c8cc2" y="640.8"/>
      </g>
     </g>
    </g>
    <g id="xtick_10">
     <g id="line2d_19">
      <path clip-path="url(#pbabc284c38)" d="M 274.10752 640.8 
L 274.10752 86.4 
" style="fill:none;stroke:#000000;stroke-dasharray:3.7,1.6;stroke-dashoffset:0;"/>
     </g>
     <g id="line2d_20">
      <g>
       <use style="stroke:#000000;stroke-width:0.6;" x="274.10752" xlink:href="#me4b62c8cc2" y="640.8"/>
      </g>
     </g>
    </g>
    <g id="xtick_11">
     <g id="line2d_21">
      <path clip-path="url(#pbabc284c38)" d="M 339.161281 640.8 
L 339.161281 86.4 
" style="fill:none;stroke:#000000;stroke-dasharray:3.7,1.6;stroke-dashoffset:0;"/>
     </g>
     <g id="line2d_22">
      <g>
       <use style="stroke:#000000;stroke-width:0.6;" x="339.161281" xlink:href="#me4b62c8cc2" y="640.8"/>
      </g>
     </g>
    </g>
    <g id="xtick_12">
     <g id="line2d_23">
      <path clip-path="url(#pbabc284c38)" d="M 371.688161 640.8 
L 371.688161 86.4 
" style="fill:none;stroke:#000000;stroke-dasharray:3.7,1.6;stroke-dashoffset:0;"/>
     </g>
     <g id="line2d_24">
      <g>
       <use style="stroke:#000000;stroke-width:0.6;" x="371.688161" xlink:href="#me4b62c8cc2" y="640.8"/>
      </g>
     </g>
    </g>
    <g id="xtick_13">
     <g id="line2d_25">
      <path clip-path="url(#pbabc284c38)" d="M 404.215041 640.8 
L 404.215041 86.4 
" style="fill:none;stroke:#000000;stroke-dasharray:3.7,1.6;stroke-dashoffset:0;"/>
     </g>
     <g id="line2d_26">
      <g>
       <use style="stroke:#000000;stroke-width:0.6;" x="404.215041" xlink:href="#me4b62c8cc2" y="640.8"/>
      </g>
     </g>
    </g>
    <g id="xtick_14">
     <g id="line2d_27">
      <path clip-path="url(#pbabc284c38)" d="M 436.741921 640.8 
L 436.741921 86.4 
" style="fill:none;stroke:#000000;stroke-dasharray:3.7,1.6;stroke-dashoffset:0;"/>
     </g>
     <g id="line2d_28">
      <g>
       <use style="stroke:#000000;stroke-width:0.6;" x="436.741921" xlink:href="#me4b62c8cc2" y="640.8"/>
      </g>
     </g>
    </g>
    <g id="xtick_15">
     <g id="line2d_29">
      <path clip-path="url(#pbabc284c38)" d="M 501.795681 640.8 
L 501.795681 86.4 
" style="fill:none;stroke:#000000;stroke-dasharray:3.7,1.6;stroke-dashoffset:0;"/>
     </g>
     <g id="line2d_30">
      <g>
       <use style="stroke:#000000;stroke-width:0.6;" x="501.795681" xlink:href="#me4b62c8cc2" y="640.8"/>
      </g>
     </g>
    </g>
    <g id="xtick_16">
     <g id="line2d_31">
      <path clip-path="url(#pbabc284c38)" d="M 534.322561 640.8 
L 534.322561 86.4 
" style="fill:none;stroke:#000000;stroke-dasharray:3.7,1.6;stroke-dashoffset:0;"/>
     </g>
     <g id="line2d_32">
      <g>
       <use style="stroke:#000000;stroke-width:0.6;" x="534.322561" xlink:href="#me4b62c8cc2" y="640.8"/>
      </g>
     </g>
    </g>
    <g id="xtick_17">
     <g id="line2d_33">
      <path clip-path="url(#pbabc284c38)" d="M 566.849441 640.8 
L 566.849441 86.4 
" style="fill:none;stroke:#000000;stroke-dasharray:3.7,1.6;stroke-dashoffset:0;"/>
     </g>
     <g id="line2d_34">
      <g>
       <use style="stroke:#000000;stroke-width:0.6;" x="566.849441" xlink:href="#me4b62c8cc2" y="640.8"/>
      </g>
     </g>
    </g>
    <g id="xtick_18">
     <g id="line2d_35">
      <path clip-path="url(#pbabc284c38)" d="M 599.376321 640.8 
L 599.376321 86.4 
" style="fill:none;stroke:#000000;stroke-dasharray:3.7,1.6;stroke-dashoffset:0;"/>
     </g>
     <g id="line2d_36">
      <g>
       <use style="stroke:#000000;stroke-width:0.6;" x="599.376321" xlink:href="#me4b62c8cc2" y="640.8"/>
      </g>
     </g>
    </g>
    <g id="xtick_19">
     <g id="line2d_37">
      <path clip-path="url(#pbabc284c38)" d="M 664.430082 640.8 
L 664.430082 86.4 
" style="fill:none;stroke:#000000;stroke-dasharray:3.7,1.6;stroke-dashoffset:0;"/>
     </g>
     <g id="line2d_38">
      <g>
       <use style="stroke:#000000;stroke-width:0.6;" x="664.430082" xlink:href="#me4b62c8cc2" y="640.8"/>
      </g>
     </g>
    </g>
    <g id="xtick_20">
     <g id="line2d_39">
      <path clip-path="url(#pbabc284c38)" d="M 696.956962 640.8 
L 696.956962 86.4 
" style="fill:none;stroke:#000000;stroke-dasharray:3.7,1.6;stroke-dashoffset:0;"/>
     </g>
     <g id="line2d_40">
      <g>
       <use style="stroke:#000000;stroke-width:0.6;" x="696.956962" xlink:href="#me4b62c8cc2" y="640.8"/>
      </g>
     </g>
    </g>
    <g id="xtick_21">
     <g id="line2d_41">
      <path clip-path="url(#pbabc284c38)" d="M 729.483842 640.8 
L 729.483842 86.4 
" style="fill:none;stroke:#000000;stroke-dasharray:3.7,1.6;stroke-dashoffset:0;"/>
     </g>
     <g id="line2d_42">
      <g>
       <use style="stroke:#000000;stroke-width:0.6;" x="729.483842" xlink:href="#me4b62c8cc2" y="640.8"/>
      </g>
     </g>
    </g>
    <g id="xtick_22">
     <g id="line2d_43">
      <path clip-path="url(#pbabc284c38)" d="M 762.010722 640.8 
L 762.010722 86.4 
" style="fill:none;stroke:#000000;stroke-dasharray:3.7,1.6;stroke-dashoffset:0;"/>
     </g>
     <g id="line2d_44">
      <g>
       <use style="stroke:#000000;stroke-width:0.6;" x="762.010722" xlink:href="#me4b62c8cc2" y="640.8"/>
      </g>
     </g>
    </g>
    <g id="xtick_23">
     <g id="line2d_45">
      <path clip-path="url(#pbabc284c38)" d="M 827.064482 640.8 
L 827.064482 86.4 
" style="fill:none;stroke:#000000;stroke-dasharray:3.7,1.6;stroke-dashoffset:0;"/>
     </g>
     <g id="line2d_46">
      <g>
       <use style="stroke:#000000;stroke-width:0.6;" x="827.064482" xlink:href="#me4b62c8cc2" y="640.8"/>
      </g>
     </g>
    </g>
    <g id="xtick_24">
     <g id="line2d_47">
      <path clip-path="url(#pbabc284c38)" d="M 859.591362 640.8 
L 859.591362 86.4 
" style="fill:none;stroke:#000000;stroke-dasharray:3.7,1.6;stroke-dashoffset:0;"/>
     </g>
     <g id="line2d_48">
      <g>
       <use style="stroke:#000000;stroke-width:0.6;" x="859.591362" xlink:href="#me4b62c8cc2" y="640.8"/>
      </g>
     </g>
    </g>
    <g id="xtick_25">
     <g id="line2d_49">
      <path clip-path="url(#pbabc284c38)" d="M 892.118242 640.8 
L 892.118242 86.4 
" style="fill:none;stroke:#000000;stroke-dasharray:3.7,1.6;stroke-dashoffset:0;"/>
     </g>
     <g id="line2d_50">
      <g>
       <use style="stroke:#000000;stroke-width:0.6;" x="892.118242" xlink:href="#me4b62c8cc2" y="640.8"/>
      </g>
     </g>
    </g>
    <g id="xtick_26">
     <g id="line2d_51">
      <path clip-path="url(#pbabc284c38)" d="M 924.645122 640.8 
L 924.645122 86.4 
" style="fill:none;stroke:#000000;stroke-dasharray:3.7,1.6;stroke-dashoffset:0;"/>
     </g>
     <g id="line2d_52">
      <g>
       <use style="stroke:#000000;stroke-width:0.6;" x="924.645122" xlink:href="#me4b62c8cc2" y="640.8"/>
      </g>
     </g>
    </g>
    <g id="xtick_27">
     <g id="line2d_53">
      <path clip-path="url(#pbabc284c38)" d="M 989.698883 640.8 
L 989.698883 86.4 
" style="fill:none;stroke:#000000;stroke-dasharray:3.7,1.6;stroke-dashoffset:0;"/>
     </g>
     <g id="line2d_54">
      <g>
       <use style="stroke:#000000;stroke-width:0.6;" x="989.698883" xlink:href="#me4b62c8cc2" y="640.8"/>
      </g>
     </g>
    </g>
    <g id="xtick_28">
     <g id="line2d_55">
      <path clip-path="url(#pbabc284c38)" d="M 1022.225763 640.8 
L 1022.225763 86.4 
" style="fill:none;stroke:#000000;stroke-dasharray:3.7,1.6;stroke-dashoffset:0;"/>
     </g>
     <g id="line2d_56">
      <g>
       <use style="stroke:#000000;stroke-width:0.6;" x="1022.225763" xlink:href="#me4b62c8cc2" y="640.8"/>
      </g>
     </g>
    </g>
    <g id="text_7">
     <!-- Time, sec -->
     <g transform="translate(566.557812 669.076563)scale(0.1 -0.1)">
      <defs>
       <path d="M -19 4666 
L 3928 4666 
L 3928 4134 
L 2272 4134 
L 2272 0 
L 1638 0 
L 1638 4134 
L -19 4134 
L -19 4666 
z
" id="DejaVuSans-54" transform="scale(0.015625)"/>
       <path d="M 603 3500 
L 1178 3500 
L 1178 0 
L 603 0 
L 603 3500 
z
M 603 4863 
L 1178 4863 
L 1178 4134 
L 603 4134 
L 603 4863 
z
" id="DejaVuSans-69" transform="scale(0.015625)"/>
       <path d="M 3328 2828 
Q 3544 3216 3844 3400 
Q 4144 3584 4550 3584 
Q 5097 3584 5394 3201 
Q 5691 2819 5691 2113 
L 5691 0 
L 5113 0 
L 5113 2094 
Q 5113 2597 4934 2840 
Q 4756 3084 4391 3084 
Q 3944 3084 3684 2787 
Q 3425 2491 3425 1978 
L 3425 0 
L 2847 0 
L 2847 2094 
Q 2847 2600 2669 2842 
Q 2491 3084 2119 3084 
Q 1678 3084 1418 2786 
Q 1159 2488 1159 1978 
L 1159 0 
L 581 0 
L 581 3500 
L 1159 3500 
L 1159 2956 
Q 1356 3278 1631 3431 
Q 1906 3584 2284 3584 
Q 2666 3584 2933 3390 
Q 3200 3197 3328 2828 
z
" id="DejaVuSans-6d" transform="scale(0.015625)"/>
       <path d="M 3597 1894 
L 3597 1613 
L 953 1613 
Q 991 1019 1311 708 
Q 1631 397 2203 397 
Q 2534 397 2845 478 
Q 3156 559 3463 722 
L 3463 178 
Q 3153 47 2828 -22 
Q 2503 -91 2169 -91 
Q 1331 -91 842 396 
Q 353 884 353 1716 
Q 353 2575 817 3079 
Q 1281 3584 2069 3584 
Q 2775 3584 3186 3129 
Q 3597 2675 3597 1894 
z
M 3022 2063 
Q 3016 2534 2758 2815 
Q 2500 3097 2075 3097 
Q 1594 3097 1305 2825 
Q 1016 2553 972 2059 
L 3022 2063 
z
" id="DejaVuSans-65" transform="scale(0.015625)"/>
       <path d="M 750 794 
L 1409 794 
L 1409 256 
L 897 -744 
L 494 -744 
L 750 256 
L 750 794 
z
" id="DejaVuSans-2c" transform="scale(0.015625)"/>
       <path id="DejaVuSans-20" transform="scale(0.015625)"/>
       <path d="M 2834 3397 
L 2834 2853 
Q 2591 2978 2328 3040 
Q 2066 3103 1784 3103 
Q 1356 3103 1142 2972 
Q 928 2841 928 2578 
Q 928 2378 1081 2264 
Q 1234 2150 1697 2047 
L 1894 2003 
Q 2506 1872 2764 1633 
Q 3022 1394 3022 966 
Q 3022 478 2636 193 
Q 2250 -91 1575 -91 
Q 1294 -91 989 -36 
Q 684 19 347 128 
L 347 722 
Q 666 556 975 473 
Q 1284 391 1588 391 
Q 1994 391 2212 530 
Q 2431 669 2431 922 
Q 2431 1156 2273 1281 
Q 2116 1406 1581 1522 
L 1381 1569 
Q 847 1681 609 1914 
Q 372 2147 372 2553 
Q 372 3047 722 3315 
Q 1072 3584 1716 3584 
Q 2034 3584 2315 3537 
Q 2597 3491 2834 3397 
z
" id="DejaVuSans-73" transform="scale(0.015625)"/>
       <path d="M 3122 3366 
L 3122 2828 
Q 2878 2963 2633 3030 
Q 2388 3097 2138 3097 
Q 1578 3097 1268 2742 
Q 959 2388 959 1747 
Q 959 1106 1268 751 
Q 1578 397 2138 397 
Q 2388 397 2633 464 
Q 2878 531 3122 666 
L 3122 134 
Q 2881 22 2623 -34 
Q 2366 -91 2075 -91 
Q 1284 -91 818 406 
Q 353 903 353 1747 
Q 353 2603 823 3093 
Q 1294 3584 2113 3584 
Q 2378 3584 2631 3529 
Q 2884 3475 3122 3366 
z
" id="DejaVuSans-63" transform="scale(0.015625)"/>
      </defs>
      <use xlink:href="#DejaVuSans-54"/>
      <use x="57.958984" xlink:href="#DejaVuSans-69"/>
      <use x="85.742188" xlink:href="#DejaVuSans-6d"/>
      <use x="183.154297" xlink:href="#DejaVuSans-65"/>
      <use x="244.677734" xlink:href="#DejaVuSans-2c"/>
      <use x="276.464844" xlink:href="#DejaVuSans-20"/>
      <use x="308.251953" xlink:href="#DejaVuSans-73"/>
      <use x="360.351562" xlink:href="#DejaVuSans-65"/>
      <use x="421.875" xlink:href="#DejaVuSans-63"/>
     </g>
    </g>
   </g>
   <g id="matplotlib.axis_2">
    <g id="ytick_1">
     <g id="line2d_57">
      <path clip-path="url(#pbabc284c38)" d="M 144 555.837885 
L 1036.8 555.837885 
" style="fill:none;stroke:#000000;stroke-linecap:square;stroke-width:2;"/>
     </g>
     <g id="line2d_58">
      <defs>
       <path d="M 0 0 
L -3.5 0 
" id="m1435ec7305" style="stroke:#000000;stroke-width:0.8;"/>
      </defs>
      <g>
       <use style="stroke:#000000;stroke-width:0.8;" x="144" xlink:href="#m1435ec7305" y="555.837885"/>
      </g>
     </g>
     <g id="text_8">
      <!-- 0.5 -->
      <g transform="translate(121.096875 559.637104)scale(0.1 -0.1)">
       <defs>
        <path d="M 684 794 
L 1344 794 
L 1344 0 
L 684 0 
L 684 794 
z
" id="DejaVuSans-2e" transform="scale(0.015625)"/>
       </defs>
       <use xlink:href="#DejaVuSans-30"/>
       <use x="63.623047" xlink:href="#DejaVuSans-2e"/>
       <use x="95.410156" xlink:href="#DejaVuSans-35"/>
      </g>
     </g>
    </g>
    <g id="ytick_2">
     <g id="line2d_59">
      <path clip-path="url(#pbabc284c38)" d="M 144 461.106608 
L 1036.8 461.106608 
" style="fill:none;stroke:#000000;stroke-linecap:square;stroke-width:2;"/>
     </g>
     <g id="line2d_60">
      <g>
       <use style="stroke:#000000;stroke-width:0.8;" x="144" xlink:href="#m1435ec7305" y="461.106608"/>
      </g>
     </g>
     <g id="text_9">
      <!-- 1.0 -->
      <g transform="translate(121.096875 464.905827)scale(0.1 -0.1)">
       <use xlink:href="#DejaVuSans-31"/>
       <use x="63.623047" xlink:href="#DejaVuSans-2e"/>
       <use x="95.410156" xlink:href="#DejaVuSans-30"/>
      </g>
     </g>
    </g>
    <g id="ytick_3">
     <g id="line2d_61">
      <path clip-path="url(#pbabc284c38)" d="M 144 366.37533 
L 1036.8 366.37533 
" style="fill:none;stroke:#000000;stroke-linecap:square;stroke-width:2;"/>
     </g>
     <g id="line2d_62">
      <g>
       <use style="stroke:#000000;stroke-width:0.8;" x="144" xlink:href="#m1435ec7305" y="366.37533"/>
      </g>
     </g>
     <g id="text_10">
      <!-- 1.5 -->
      <g transform="translate(121.096875 370.174549)scale(0.1 -0.1)">
       <use xlink:href="#DejaVuSans-31"/>
       <use x="63.623047" xlink:href="#DejaVuSans-2e"/>
       <use x="95.410156" xlink:href="#DejaVuSans-35"/>
      </g>
     </g>
    </g>
    <g id="ytick_4">
     <g id="line2d_63">
      <path clip-path="url(#pbabc284c38)" d="M 144 271.644053 
L 1036.8 271.644053 
" style="fill:none;stroke:#000000;stroke-linecap:square;stroke-width:2;"/>
     </g>
     <g id="line2d_64">
      <g>
       <use style="stroke:#000000;stroke-width:0.8;" x="144" xlink:href="#m1435ec7305" y="271.644053"/>
      </g>
     </g>
     <g id="text_11">
      <!-- 2.0 -->
      <g transform="translate(121.096875 275.443272)scale(0.1 -0.1)">
       <use xlink:href="#DejaVuSans-32"/>
       <use x="63.623047" xlink:href="#DejaVuSans-2e"/>
       <use x="95.410156" xlink:href="#DejaVuSans-30"/>
      </g>
     </g>
    </g>
    <g id="ytick_5">
     <g id="line2d_65">
      <path clip-path="url(#pbabc284c38)" d="M 144 176.912775 
L 1036.8 176.912775 
" style="fill:none;stroke:#000000;stroke-linecap:square;stroke-width:2;"/>
     </g>
     <g id="line2d_66">
      <g>
       <use style="stroke:#000000;stroke-width:0.8;" x="144" xlink:href="#m1435ec7305" y="176.912775"/>
      </g>
     </g>
     <g id="text_12">
      <!-- 2.5 -->
      <g transform="translate(121.096875 180.711994)scale(0.1 -0.1)">
       <use xlink:href="#DejaVuSans-32"/>
       <use x="63.623047" xlink:href="#DejaVuSans-2e"/>
       <use x="95.410156" xlink:href="#DejaVuSans-35"/>
      </g>
     </g>
    </g>
    <g id="ytick_6">
     <g id="line2d_67">
      <path clip-path="url(#pbabc284c38)" d="M 144 631.622907 
L 1036.8 631.622907 
" style="fill:none;stroke:#000000;stroke-dasharray:3.7,1.6;stroke-dashoffset:0;"/>
     </g>
     <g id="line2d_68">
      <defs>
       <path d="M 0 0 
L -2 0 
" id="mb03d324c83" style="stroke:#000000;stroke-width:0.6;"/>
      </defs>
      <g>
       <use style="stroke:#000000;stroke-width:0.6;" x="144" xlink:href="#mb03d324c83" y="631.622907"/>
      </g>
     </g>
    </g>
    <g id="ytick_7">
     <g id="line2d_69">
      <path clip-path="url(#pbabc284c38)" d="M 144 612.676652 
L 1036.8 612.676652 
" style="fill:none;stroke:#000000;stroke-dasharray:3.7,1.6;stroke-dashoffset:0;"/>
     </g>
     <g id="line2d_70">
      <g>
       <use style="stroke:#000000;stroke-width:0.6;" x="144" xlink:href="#mb03d324c83" y="612.676652"/>
      </g>
     </g>
    </g>
    <g id="ytick_8">
     <g id="line2d_71">
      <path clip-path="url(#pbabc284c38)" d="M 144 593.730396 
L 1036.8 593.730396 
" style="fill:none;stroke:#000000;stroke-dasharray:3.7,1.6;stroke-dashoffset:0;"/>
     </g>
     <g id="line2d_72">
      <g>
       <use style="stroke:#000000;stroke-width:0.6;" x="144" xlink:href="#mb03d324c83" y="593.730396"/>
      </g>
     </g>
    </g>
    <g id="ytick_9">
     <g id="line2d_73">
      <path clip-path="url(#pbabc284c38)" d="M 144 574.784141 
L 1036.8 574.784141 
" style="fill:none;stroke:#000000;stroke-dasharray:3.7,1.6;stroke-dashoffset:0;"/>
     </g>
     <g id="line2d_74">
      <g>
       <use style="stroke:#000000;stroke-width:0.6;" x="144" xlink:href="#mb03d324c83" y="574.784141"/>
      </g>
     </g>
    </g>
    <g id="ytick_10">
     <g id="line2d_75">
      <path clip-path="url(#pbabc284c38)" d="M 144 536.89163 
L 1036.8 536.89163 
" style="fill:none;stroke:#000000;stroke-dasharray:3.7,1.6;stroke-dashoffset:0;"/>
     </g>
     <g id="line2d_76">
      <g>
       <use style="stroke:#000000;stroke-width:0.6;" x="144" xlink:href="#mb03d324c83" y="536.89163"/>
      </g>
     </g>
    </g>
    <g id="ytick_11">
     <g id="line2d_77">
      <path clip-path="url(#pbabc284c38)" d="M 144 517.945374 
L 1036.8 517.945374 
" style="fill:none;stroke:#000000;stroke-dasharray:3.7,1.6;stroke-dashoffset:0;"/>
     </g>
     <g id="line2d_78">
      <g>
       <use style="stroke:#000000;stroke-width:0.6;" x="144" xlink:href="#mb03d324c83" y="517.945374"/>
      </g>
     </g>
    </g>
    <g id="ytick_12">
     <g id="line2d_79">
      <path clip-path="url(#pbabc284c38)" d="M 144 498.999119 
L 1036.8 498.999119 
" style="fill:none;stroke:#000000;stroke-dasharray:3.7,1.6;stroke-dashoffset:0;"/>
     </g>
     <g id="line2d_80">
      <g>
       <use style="stroke:#000000;stroke-width:0.6;" x="144" xlink:href="#mb03d324c83" y="498.999119"/>
      </g>
     </g>
    </g>
    <g id="ytick_13">
     <g id="line2d_81">
      <path clip-path="url(#pbabc284c38)" d="M 144 480.052863 
L 1036.8 480.052863 
" style="fill:none;stroke:#000000;stroke-dasharray:3.7,1.6;stroke-dashoffset:0;"/>
     </g>
     <g id="line2d_82">
      <g>
       <use style="stroke:#000000;stroke-width:0.6;" x="144" xlink:href="#mb03d324c83" y="480.052863"/>
      </g>
     </g>
    </g>
    <g id="ytick_14">
     <g id="line2d_83">
      <path clip-path="url(#pbabc284c38)" d="M 144 442.160352 
L 1036.8 442.160352 
" style="fill:none;stroke:#000000;stroke-dasharray:3.7,1.6;stroke-dashoffset:0;"/>
     </g>
     <g id="line2d_84">
      <g>
       <use style="stroke:#000000;stroke-width:0.6;" x="144" xlink:href="#mb03d324c83" y="442.160352"/>
      </g>
     </g>
    </g>
    <g id="ytick_15">
     <g id="line2d_85">
      <path clip-path="url(#pbabc284c38)" d="M 144 423.214097 
L 1036.8 423.214097 
" style="fill:none;stroke:#000000;stroke-dasharray:3.7,1.6;stroke-dashoffset:0;"/>
     </g>
     <g id="line2d_86">
      <g>
       <use style="stroke:#000000;stroke-width:0.6;" x="144" xlink:href="#mb03d324c83" y="423.214097"/>
      </g>
     </g>
    </g>
    <g id="ytick_16">
     <g id="line2d_87">
      <path clip-path="url(#pbabc284c38)" d="M 144 404.267841 
L 1036.8 404.267841 
" style="fill:none;stroke:#000000;stroke-dasharray:3.7,1.6;stroke-dashoffset:0;"/>
     </g>
     <g id="line2d_88">
      <g>
       <use style="stroke:#000000;stroke-width:0.6;" x="144" xlink:href="#mb03d324c83" y="404.267841"/>
      </g>
     </g>
    </g>
    <g id="ytick_17">
     <g id="line2d_89">
      <path clip-path="url(#pbabc284c38)" d="M 144 385.321586 
L 1036.8 385.321586 
" style="fill:none;stroke:#000000;stroke-dasharray:3.7,1.6;stroke-dashoffset:0;"/>
     </g>
     <g id="line2d_90">
      <g>
       <use style="stroke:#000000;stroke-width:0.6;" x="144" xlink:href="#mb03d324c83" y="385.321586"/>
      </g>
     </g>
    </g>
    <g id="ytick_18">
     <g id="line2d_91">
      <path clip-path="url(#pbabc284c38)" d="M 144 347.429075 
L 1036.8 347.429075 
" style="fill:none;stroke:#000000;stroke-dasharray:3.7,1.6;stroke-dashoffset:0;"/>
     </g>
     <g id="line2d_92">
      <g>
       <use style="stroke:#000000;stroke-width:0.6;" x="144" xlink:href="#mb03d324c83" y="347.429075"/>
      </g>
     </g>
    </g>
    <g id="ytick_19">
     <g id="line2d_93">
      <path clip-path="url(#pbabc284c38)" d="M 144 328.482819 
L 1036.8 328.482819 
" style="fill:none;stroke:#000000;stroke-dasharray:3.7,1.6;stroke-dashoffset:0;"/>
     </g>
     <g id="line2d_94">
      <g>
       <use style="stroke:#000000;stroke-width:0.6;" x="144" xlink:href="#mb03d324c83" y="328.482819"/>
      </g>
     </g>
    </g>
    <g id="ytick_20">
     <g id="line2d_95">
      <path clip-path="url(#pbabc284c38)" d="M 144 309.536564 
L 1036.8 309.536564 
" style="fill:none;stroke:#000000;stroke-dasharray:3.7,1.6;stroke-dashoffset:0;"/>
     </g>
     <g id="line2d_96">
      <g>
       <use style="stroke:#000000;stroke-width:0.6;" x="144" xlink:href="#mb03d324c83" y="309.536564"/>
      </g>
     </g>
    </g>
    <g id="ytick_21">
     <g id="line2d_97">
      <path clip-path="url(#pbabc284c38)" d="M 144 290.590308 
L 1036.8 290.590308 
" style="fill:none;stroke:#000000;stroke-dasharray:3.7,1.6;stroke-dashoffset:0;"/>
     </g>
     <g id="line2d_98">
      <g>
       <use style="stroke:#000000;stroke-width:0.6;" x="144" xlink:href="#mb03d324c83" y="290.590308"/>
      </g>
     </g>
    </g>
    <g id="ytick_22">
     <g id="line2d_99">
      <path clip-path="url(#pbabc284c38)" d="M 144 252.697797 
L 1036.8 252.697797 
" style="fill:none;stroke:#000000;stroke-dasharray:3.7,1.6;stroke-dashoffset:0;"/>
     </g>
     <g id="line2d_100">
      <g>
       <use style="stroke:#000000;stroke-width:0.6;" x="144" xlink:href="#mb03d324c83" y="252.697797"/>
      </g>
     </g>
    </g>
    <g id="ytick_23">
     <g id="line2d_101">
      <path clip-path="url(#pbabc284c38)" d="M 144 233.751542 
L 1036.8 233.751542 
" style="fill:none;stroke:#000000;stroke-dasharray:3.7,1.6;stroke-dashoffset:0;"/>
     </g>
     <g id="line2d_102">
      <g>
       <use style="stroke:#000000;stroke-width:0.6;" x="144" xlink:href="#mb03d324c83" y="233.751542"/>
      </g>
     </g>
    </g>
    <g id="ytick_24">
     <g id="line2d_103">
      <path clip-path="url(#pbabc284c38)" d="M 144 214.805286 
L 1036.8 214.805286 
" style="fill:none;stroke:#000000;stroke-dasharray:3.7,1.6;stroke-dashoffset:0;"/>
     </g>
     <g id="line2d_104">
      <g>
       <use style="stroke:#000000;stroke-width:0.6;" x="144" xlink:href="#mb03d324c83" y="214.805286"/>
      </g>
     </g>
    </g>
    <g id="ytick_25">
     <g id="line2d_105">
      <path clip-path="url(#pbabc284c38)" d="M 144 195.859031 
L 1036.8 195.859031 
" style="fill:none;stroke:#000000;stroke-dasharray:3.7,1.6;stroke-dashoffset:0;"/>
     </g>
     <g id="line2d_106">
      <g>
       <use style="stroke:#000000;stroke-width:0.6;" x="144" xlink:href="#mb03d324c83" y="195.859031"/>
      </g>
     </g>
    </g>
    <g id="ytick_26">
     <g id="line2d_107">
      <path clip-path="url(#pbabc284c38)" d="M 144 157.96652 
L 1036.8 157.96652 
" style="fill:none;stroke:#000000;stroke-dasharray:3.7,1.6;stroke-dashoffset:0;"/>
     </g>
     <g id="line2d_108">
      <g>
       <use style="stroke:#000000;stroke-width:0.6;" x="144" xlink:href="#mb03d324c83" y="157.96652"/>
      </g>
     </g>
    </g>
    <g id="ytick_27">
     <g id="line2d_109">
      <path clip-path="url(#pbabc284c38)" d="M 144 139.020264 
L 1036.8 139.020264 
" style="fill:none;stroke:#000000;stroke-dasharray:3.7,1.6;stroke-dashoffset:0;"/>
     </g>
     <g id="line2d_110">
      <g>
       <use style="stroke:#000000;stroke-width:0.6;" x="144" xlink:href="#mb03d324c83" y="139.020264"/>
      </g>
     </g>
    </g>
    <g id="ytick_28">
     <g id="line2d_111">
      <path clip-path="url(#pbabc284c38)" d="M 144 120.074009 
L 1036.8 120.074009 
" style="fill:none;stroke:#000000;stroke-dasharray:3.7,1.6;stroke-dashoffset:0;"/>
     </g>
     <g id="line2d_112">
      <g>
       <use style="stroke:#000000;stroke-width:0.6;" x="144" xlink:href="#mb03d324c83" y="120.074009"/>
      </g>
     </g>
    </g>
    <g id="ytick_29">
     <g id="line2d_113">
      <path clip-path="url(#pbabc284c38)" d="M 144 101.127753 
L 1036.8 101.127753 
" style="fill:none;stroke:#000000;stroke-dasharray:3.7,1.6;stroke-dashoffset:0;"/>
     </g>
     <g id="line2d_114">
      <g>
       <use style="stroke:#000000;stroke-width:0.6;" x="144" xlink:href="#mb03d324c83" y="101.127753"/>
      </g>
     </g>
    </g>
    <g id="text_13">
     <!-- Voltage, V -->
     <g transform="translate(115.017187 388.954687)rotate(-90)scale(0.1 -0.1)">
      <defs>
       <path d="M 1831 0 
L 50 4666 
L 709 4666 
L 2188 738 
L 3669 4666 
L 4325 4666 
L 2547 0 
L 1831 0 
z
" id="DejaVuSans-56" transform="scale(0.015625)"/>
       <path d="M 1959 3097 
Q 1497 3097 1228 2736 
Q 959 2375 959 1747 
Q 959 1119 1226 758 
Q 1494 397 1959 397 
Q 2419 397 2687 759 
Q 2956 1122 2956 1747 
Q 2956 2369 2687 2733 
Q 2419 3097 1959 3097 
z
M 1959 3584 
Q 2709 3584 3137 3096 
Q 3566 2609 3566 1747 
Q 3566 888 3137 398 
Q 2709 -91 1959 -91 
Q 1206 -91 779 398 
Q 353 888 353 1747 
Q 353 2609 779 3096 
Q 1206 3584 1959 3584 
z
" id="DejaVuSans-6f" transform="scale(0.015625)"/>
       <path d="M 603 4863 
L 1178 4863 
L 1178 0 
L 603 0 
L 603 4863 
z
" id="DejaVuSans-6c" transform="scale(0.015625)"/>
       <path d="M 1172 4494 
L 1172 3500 
L 2356 3500 
L 2356 3053 
L 1172 3053 
L 1172 1153 
Q 1172 725 1289 603 
Q 1406 481 1766 481 
L 2356 481 
L 2356 0 
L 1766 0 
Q 1100 0 847 248 
Q 594 497 594 1153 
L 594 3053 
L 172 3053 
L 172 3500 
L 594 3500 
L 594 4494 
L 1172 4494 
z
" id="DejaVuSans-74" transform="scale(0.015625)"/>
       <path d="M 2194 1759 
Q 1497 1759 1228 1600 
Q 959 1441 959 1056 
Q 959 750 1161 570 
Q 1363 391 1709 391 
Q 2188 391 2477 730 
Q 2766 1069 2766 1631 
L 2766 1759 
L 2194 1759 
z
M 3341 1997 
L 3341 0 
L 2766 0 
L 2766 531 
Q 2569 213 2275 61 
Q 1981 -91 1556 -91 
Q 1019 -91 701 211 
Q 384 513 384 1019 
Q 384 1609 779 1909 
Q 1175 2209 1959 2209 
L 2766 2209 
L 2766 2266 
Q 2766 2663 2505 2880 
Q 2244 3097 1772 3097 
Q 1472 3097 1187 3025 
Q 903 2953 641 2809 
L 641 3341 
Q 956 3463 1253 3523 
Q 1550 3584 1831 3584 
Q 2591 3584 2966 3190 
Q 3341 2797 3341 1997 
z
" id="DejaVuSans-61" transform="scale(0.015625)"/>
       <path d="M 2906 1791 
Q 2906 2416 2648 2759 
Q 2391 3103 1925 3103 
Q 1463 3103 1205 2759 
Q 947 2416 947 1791 
Q 947 1169 1205 825 
Q 1463 481 1925 481 
Q 2391 481 2648 825 
Q 2906 1169 2906 1791 
z
M 3481 434 
Q 3481 -459 3084 -895 
Q 2688 -1331 1869 -1331 
Q 1566 -1331 1297 -1286 
Q 1028 -1241 775 -1147 
L 775 -588 
Q 1028 -725 1275 -790 
Q 1522 -856 1778 -856 
Q 2344 -856 2625 -561 
Q 2906 -266 2906 331 
L 2906 616 
Q 2728 306 2450 153 
Q 2172 0 1784 0 
Q 1141 0 747 490 
Q 353 981 353 1791 
Q 353 2603 747 3093 
Q 1141 3584 1784 3584 
Q 2172 3584 2450 3431 
Q 2728 3278 2906 2969 
L 2906 3500 
L 3481 3500 
L 3481 434 
z
" id="DejaVuSans-67" transform="scale(0.015625)"/>
      </defs>
      <use xlink:href="#DejaVuSans-56"/>
      <use x="60.658203" xlink:href="#DejaVuSans-6f"/>
      <use x="121.839844" xlink:href="#DejaVuSans-6c"/>
      <use x="149.623047" xlink:href="#DejaVuSans-74"/>
      <use x="188.832031" xlink:href="#DejaVuSans-61"/>
      <use x="250.111328" xlink:href="#DejaVuSans-67"/>
      <use x="313.587891" xlink:href="#DejaVuSans-65"/>
      <use x="375.111328" xlink:href="#DejaVuSans-2c"/>
      <use x="406.898438" xlink:href="#DejaVuSans-20"/>
      <use x="438.685547" xlink:href="#DejaVuSans-56"/>
     </g>
    </g>
   </g>
   <g id="line2d_115">
    <path clip-path="url(#pbabc284c38)" d="M 144 640.8 
L 145.157977 640.8 
L 146.315953 633.473128 
L 147.47393 631.030837 
L 148.631907 626.146256 
L 149.789883 618.819383 
L 152.105837 613.934802 
L 153.263813 606.60793 
L 154.42179 601.723348 
L 155.579767 594.396476 
L 156.737743 594.396476 
L 157.89572 587.069604 
L 159.053696 584.627313 
L 160.211673 577.300441 
L 161.36965 574.85815 
L 166.001556 555.319824 
L 167.159533 555.319824 
L 168.31751 547.992952 
L 169.475486 543.10837 
L 170.633463 540.666079 
L 174.107393 526.012335 
L 175.26537 523.570044 
L 176.423346 518.685463 
L 177.581323 516.243172 
L 179.897276 506.474009 
L 182.21323 501.589427 
L 183.371206 496.704846 
L 184.529183 496.704846 
L 185.68716 489.377974 
L 186.845136 486.935683 
L 190.319066 472.281938 
L 191.477043 469.839648 
L 192.635019 464.955066 
L 196.108949 457.628194 
L 197.266926 452.743612 
L 199.582879 447.859031 
L 201.898833 438.089868 
L 203.056809 438.089868 
L 204.214786 435.647577 
L 205.372763 430.762996 
L 206.530739 428.320705 
L 207.688716 423.436123 
L 210.004669 418.551542 
L 211.162646 413.66696 
L 214.636576 406.340088 
L 215.794553 401.455507 
L 216.952529 399.013216 
L 218.110506 399.013216 
L 220.426459 389.244053 
L 228.532296 372.148018 
L 229.690272 367.263436 
L 237.796109 350.167401 
L 238.954086 345.282819 
L 240.112062 342.840529 
L 241.270039 342.840529 
L 242.428016 340.398238 
L 243.585992 340.398238 
L 244.743969 335.513656 
L 252.849805 318.417621 
L 254.007782 318.417621 
L 255.165759 313.53304 
L 256.323735 311.090749 
L 257.481712 311.090749 
L 258.639689 306.206167 
L 259.797665 303.763877 
L 260.955642 303.763877 
L 262.113619 301.321586 
L 263.271595 301.321586 
L 264.429572 296.437004 
L 265.587549 293.994714 
L 266.745525 293.994714 
L 267.903502 289.110132 
L 269.061479 286.667841 
L 271.377432 286.667841 
L 272.535409 281.78326 
L 273.693385 279.340969 
L 274.851362 281.78326 
L 276.009339 276.898678 
L 279.483268 269.571806 
L 280.641245 269.571806 
L 282.957198 264.687225 
L 284.115175 264.687225 
L 285.273152 262.244934 
L 286.431128 262.244934 
L 287.589105 257.360352 
L 288.747082 257.360352 
L 289.905058 252.475771 
L 291.063035 252.475771 
L 293.378988 247.591189 
L 295.694942 247.591189 
L 296.852918 245.148899 
L 298.010895 245.148899 
L 299.168872 242.706608 
L 300.326848 237.822026 
L 301.484825 237.822026 
L 302.642802 235.379736 
L 303.800778 235.379736 
L 304.958755 230.495154 
L 306.116732 232.937445 
L 307.274708 228.052863 
L 308.432685 225.610573 
L 309.590661 228.052863 
L 313.064591 220.725991 
L 315.380545 220.725991 
L 317.696498 215.84141 
L 318.854475 215.84141 
L 320.012451 213.399119 
L 321.170428 213.399119 
L 324.644358 206.072247 
L 325.802335 206.072247 
L 326.960311 203.629956 
L 329.276265 203.629956 
L 330.434241 201.187665 
L 331.592218 201.187665 
L 332.750195 196.303084 
L 333.908171 198.745374 
L 335.066148 193.860793 
L 336.224125 196.303084 
L 338.540078 191.418502 
L 340.856031 191.418502 
L 345.487938 181.649339 
L 346.645914 184.09163 
L 347.803891 184.09163 
L 348.961868 181.649339 
L 350.119844 176.764758 
L 352.435798 176.764758 
L 353.593774 174.322467 
L 357.067704 174.322467 
L 358.225681 169.437885 
L 359.383658 169.437885 
L 360.541634 171.880176 
L 361.699611 166.995595 
L 364.015564 166.995595 
L 365.173541 164.553304 
L 366.331518 164.553304 
L 367.489494 162.111013 
L 368.647471 162.111013 
L 370.963424 157.226432 
L 372.121401 159.668722 
L 374.437354 154.784141 
L 379.069261 154.784141 
L 380.227237 149.899559 
L 381.385214 152.34185 
L 382.543191 149.899559 
L 384.859144 149.899559 
L 387.175097 145.014978 
L 391.807004 145.014978 
L 392.964981 142.572687 
L 394.122957 142.572687 
L 396.438911 137.688106 
L 399.91284 137.688106 
L 401.070817 135.245815 
L 402.228794 137.688106 
L 403.38677 132.803524 
L 404.544747 135.245815 
L 405.702724 135.245815 
L 406.8607 132.803524 
L 409.176654 132.803524 
L 410.33463 130.361233 
L 413.80856 130.361233 
L 414.966537 127.918943 
L 416.124514 130.361233 
L 417.28249 125.476652 
L 418.440467 125.476652 
L 419.598444 127.918943 
L 420.75642 125.476652 
L 421.914397 125.476652 
L 423.072374 123.034361 
L 424.23035 123.034361 
L 425.388327 120.59207 
L 427.70428 120.59207 
L 428.862257 118.14978 
L 433.494163 118.14978 
L 435.810117 113.265198 
L 440.442023 113.265198 
L 441.6 110.822907 
L 447.389883 110.822907 
L 448.54786 108.380617 
L 449.705837 108.380617 
L 450.863813 105.938326 
L 458.96965 105.938326 
L 460.127626 103.496035 
L 462.44358 103.496035 
L 463.601556 101.053744 
L 464.759533 101.053744 
L 465.91751 98.611454 
L 470.549416 98.611454 
L 471.707393 96.169163 
L 477.497276 96.169163 
L 479.81323 91.284581 
L 482.129183 91.284581 
L 483.28716 93.726872 
L 485.603113 93.726872 
L 486.761089 91.284581 
L 487.919066 91.284581 
L 489.077043 88.842291 
L 493.708949 88.842291 
L 494.866926 86.4 
L 496.024903 93.726872 
L 497.182879 98.611454 
L 498.340856 101.053744 
L 499.498833 105.938326 
L 500.656809 113.265198 
L 501.814786 115.707489 
L 502.972763 120.59207 
L 504.130739 123.034361 
L 505.288716 130.361233 
L 506.446693 132.803524 
L 509.920623 147.457269 
L 512.236576 152.34185 
L 514.552529 162.111013 
L 515.710506 164.553304 
L 516.868482 169.437885 
L 518.026459 171.880176 
L 519.184436 176.764758 
L 520.342412 179.207048 
L 521.500389 186.533921 
L 522.658366 186.533921 
L 524.974319 196.303084 
L 527.290272 201.187665 
L 528.448249 206.072247 
L 529.606226 208.514537 
L 530.764202 213.399119 
L 531.922179 215.84141 
L 534.238132 225.610573 
L 536.554086 230.495154 
L 537.712062 235.379736 
L 541.185992 242.706608 
L 542.343969 247.591189 
L 544.659922 252.475771 
L 545.817899 257.360352 
L 546.975875 259.802643 
L 548.133852 259.802643 
L 549.291829 264.687225 
L 550.449805 267.129515 
L 551.607782 272.014097 
L 552.765759 274.456388 
L 553.923735 279.340969 
L 555.081712 279.340969 
L 557.397665 289.110132 
L 558.555642 289.110132 
L 559.713619 293.994714 
L 560.871595 293.994714 
L 563.187549 298.879295 
L 564.345525 303.763877 
L 565.503502 306.206167 
L 566.661479 311.090749 
L 567.819455 313.53304 
L 568.977432 313.53304 
L 571.293385 318.417621 
L 572.451362 323.302203 
L 573.609339 323.302203 
L 574.767315 328.186784 
L 575.925292 328.186784 
L 577.083268 333.071366 
L 578.241245 333.071366 
L 579.399222 337.955947 
L 580.557198 337.955947 
L 581.715175 342.840529 
L 584.031128 347.72511 
L 585.189105 347.72511 
L 586.347082 352.609692 
L 588.663035 357.494273 
L 589.821012 357.494273 
L 590.978988 362.378855 
L 592.136965 364.821145 
L 593.294942 364.821145 
L 594.452918 367.263436 
L 595.610895 372.148018 
L 596.768872 372.148018 
L 602.558755 384.359471 
L 603.716732 384.359471 
L 604.874708 386.801762 
L 606.032685 386.801762 
L 607.190661 391.686344 
L 609.506615 396.570925 
L 610.664591 396.570925 
L 611.822568 401.455507 
L 614.138521 401.455507 
L 615.296498 406.340088 
L 617.612451 411.22467 
L 618.770428 411.22467 
L 619.928405 413.66696 
L 621.086381 413.66696 
L 622.244358 416.109251 
L 623.402335 416.109251 
L 624.560311 420.993833 
L 625.718288 423.436123 
L 626.876265 423.436123 
L 630.350195 430.762996 
L 631.508171 430.762996 
L 632.666148 433.205286 
L 633.824125 433.205286 
L 636.140078 438.089868 
L 637.298054 438.089868 
L 638.456031 440.532159 
L 639.614008 440.532159 
L 644.245914 450.301322 
L 646.561868 450.301322 
L 647.719844 455.185903 
L 648.877821 455.185903 
L 651.193774 460.070485 
L 652.351751 460.070485 
L 653.509728 462.512775 
L 654.667704 462.512775 
L 656.983658 467.397357 
L 658.141634 467.397357 
L 659.299611 469.839648 
L 660.457588 469.839648 
L 661.615564 472.281938 
L 662.773541 472.281938 
L 665.089494 477.16652 
L 667.405447 477.16652 
L 668.563424 479.608811 
L 669.721401 479.608811 
L 672.037354 484.493392 
L 673.195331 484.493392 
L 674.353307 486.935683 
L 675.511284 486.935683 
L 677.827237 491.820264 
L 680.143191 491.820264 
L 681.301167 494.262555 
L 682.459144 494.262555 
L 683.617121 496.704846 
L 684.775097 496.704846 
L 685.933074 499.147137 
L 687.091051 499.147137 
L 689.407004 504.031718 
L 691.722957 504.031718 
L 692.880934 506.474009 
L 694.038911 506.474009 
L 695.196887 508.9163 
L 696.354864 508.9163 
L 697.51284 511.35859 
L 699.828794 511.35859 
L 702.144747 516.243172 
L 703.302724 513.800881 
L 704.4607 518.685463 
L 705.618677 518.685463 
L 706.776654 521.127753 
L 707.93463 518.685463 
L 709.092607 521.127753 
L 710.250584 521.127753 
L 712.566537 526.012335 
L 713.724514 523.570044 
L 714.88249 523.570044 
L 717.198444 528.454626 
L 719.514397 528.454626 
L 720.672374 530.896916 
L 721.83035 530.896916 
L 722.988327 533.339207 
L 724.146304 533.339207 
L 725.30428 535.781498 
L 726.462257 533.339207 
L 727.620233 535.781498 
L 728.77821 535.781498 
L 731.094163 540.666079 
L 732.25214 540.666079 
L 733.410117 538.223789 
L 734.568093 538.223789 
L 735.72607 543.10837 
L 736.884047 540.666079 
L 738.042023 543.10837 
L 740.357977 543.10837 
L 741.515953 545.550661 
L 742.67393 545.550661 
L 744.989883 550.435242 
L 746.14786 547.992952 
L 748.463813 552.877533 
L 749.62179 552.877533 
L 750.779767 555.319824 
L 751.937743 555.319824 
L 753.09572 552.877533 
L 754.253696 555.319824 
L 756.56965 555.319824 
L 757.727626 557.762115 
L 760.04358 557.762115 
L 761.201556 560.204405 
L 762.359533 560.204405 
L 763.51751 562.646696 
L 765.833463 562.646696 
L 766.99144 565.088987 
L 768.149416 562.646696 
L 769.307393 562.646696 
L 770.46537 565.088987 
L 772.781323 565.088987 
L 773.9393 567.531278 
L 776.255253 567.531278 
L 777.41323 569.973568 
L 778.571206 569.973568 
L 779.729183 572.415859 
L 783.203113 572.415859 
L 784.361089 574.85815 
L 785.519066 572.415859 
L 786.677043 574.85815 
L 787.835019 574.85815 
L 788.992996 577.300441 
L 790.150973 574.85815 
L 791.308949 577.300441 
L 794.782879 577.300441 
L 795.940856 579.742731 
L 798.256809 579.742731 
L 799.414786 582.185022 
L 800.572763 579.742731 
L 801.730739 582.185022 
L 802.888716 582.185022 
L 804.046693 584.627313 
L 805.204669 582.185022 
L 808.678599 582.185022 
L 810.994553 587.069604 
L 816.784436 587.069604 
L 817.942412 589.511894 
L 820.258366 589.511894 
L 821.416342 591.954185 
L 822.574319 589.511894 
L 823.732296 591.954185 
L 828.364202 591.954185 
L 829.522179 594.396476 
L 830.680156 594.396476 
L 831.838132 596.838767 
L 836.470039 596.838767 
L 837.628016 599.281057 
L 838.785992 599.281057 
L 839.943969 596.838767 
L 841.101946 599.281057 
L 844.575875 599.281057 
L 845.733852 596.838767 
L 846.891829 601.723348 
L 848.049805 599.281057 
L 849.207782 601.723348 
L 851.523735 601.723348 
L 852.681712 604.165639 
L 853.839689 604.165639 
L 854.997665 601.723348 
L 857.313619 601.723348 
L 859.629572 606.60793 
L 860.787549 604.165639 
L 861.945525 606.60793 
L 865.419455 606.60793 
L 866.577432 609.05022 
L 867.735409 606.60793 
L 870.051362 606.60793 
L 871.209339 609.05022 
L 876.999222 609.05022 
L 878.157198 611.492511 
L 879.315175 609.05022 
L 880.473152 611.492511 
L 885.105058 611.492511 
L 886.263035 613.934802 
L 888.578988 613.934802 
L 889.736965 611.492511 
L 890.894942 613.934802 
L 892.052918 613.934802 
L 893.210895 611.492511 
L 894.368872 613.934802 
L 895.526848 613.934802 
L 896.684825 616.377093 
L 897.842802 613.934802 
L 899.000778 616.377093 
L 900.158755 616.377093 
L 901.316732 618.819383 
L 902.474708 616.377093 
L 904.790661 616.377093 
L 905.948638 618.819383 
L 907.106615 616.377093 
L 908.264591 618.819383 
L 909.422568 618.819383 
L 910.580545 616.377093 
L 911.738521 618.819383 
L 912.896498 618.819383 
L 914.054475 621.261674 
L 915.212451 618.819383 
L 916.370428 618.819383 
L 917.528405 616.377093 
L 918.686381 618.819383 
L 919.844358 618.819383 
L 921.002335 621.261674 
L 923.318288 621.261674 
L 924.476265 618.819383 
L 925.634241 618.819383 
L 926.792218 621.261674 
L 936.056031 621.261674 
L 937.214008 623.703965 
L 944.161868 623.703965 
L 945.319844 626.146256 
L 946.477821 623.703965 
L 947.635798 623.703965 
L 948.793774 626.146256 
L 954.583658 626.146256 
L 955.741634 628.588546 
L 958.057588 628.588546 
L 959.215564 626.146256 
L 962.689494 626.146256 
L 963.847471 628.588546 
L 965.005447 628.588546 
L 966.163424 626.146256 
L 967.321401 626.146256 
L 968.479377 628.588546 
L 969.637354 628.588546 
L 970.795331 626.146256 
L 971.953307 626.146256 
L 973.111284 628.588546 
L 974.269261 626.146256 
L 975.427237 628.588546 
L 977.743191 628.588546 
L 978.901167 631.030837 
L 980.059144 628.588546 
L 982.375097 628.588546 
L 983.533074 631.030837 
L 993.954864 631.030837 
L 995.11284 633.473128 
L 996.270817 631.030837 
L 997.428794 631.030837 
L 998.58677 633.473128 
L 999.744747 631.030837 
L 1002.0607 631.030837 
L 1003.218677 633.473128 
L 1004.376654 631.030837 
L 1005.53463 631.030837 
L 1006.692607 633.473128 
L 1011.324514 633.473128 
L 1012.48249 635.915419 
L 1013.640467 633.473128 
L 1021.746304 633.473128 
L 1022.90428 635.915419 
L 1024.062257 633.473128 
L 1025.220233 635.915419 
L 1035.642023 635.915419 
L 1036.8 638.357709 
L 1036.8 638.357709 
" style="fill:none;stroke:#008000;stroke-linecap:square;stroke-width:2;"/>
    <defs>
     <path d="M 0 3 
C 0.795609 3 1.55874 2.683901 2.12132 2.12132 
C 2.683901 1.55874 3 0.795609 3 0 
C 3 -0.795609 2.683901 -1.55874 2.12132 -2.12132 
C 1.55874 -2.683901 0.795609 -3 0 -3 
C -0.795609 -3 -1.55874 -2.683901 -2.12132 -2.12132 
C -2.683901 -1.55874 -3 -0.795609 -3 0 
C -3 0.795609 -2.683901 1.55874 -2.12132 2.12132 
C -1.55874 2.683901 -0.795609 3 0 3 
z
" id="mc0a7c5899c" style="stroke:#008000;"/>
    </defs>
    <g clip-path="url(#pbabc284c38)">
     <use style="fill:#008000;stroke:#008000;" x="144" xlink:href="#mc0a7c5899c" y="640.8"/>
     <use style="fill:#008000;stroke:#008000;" x="152.105837" xlink:href="#mc0a7c5899c" y="613.934802"/>
     <use style="fill:#008000;stroke:#008000;" x="160.211673" xlink:href="#mc0a7c5899c" y="577.300441"/>
     <use style="fill:#008000;stroke:#008000;" x="168.31751" xlink:href="#mc0a7c5899c" y="547.992952"/>
     <use style="fill:#008000;stroke:#008000;" x="176.423346" xlink:href="#mc0a7c5899c" y="518.685463"/>
     <use style="fill:#008000;stroke:#008000;" x="184.529183" xlink:href="#mc0a7c5899c" y="496.704846"/>
     <use style="fill:#008000;stroke:#008000;" x="192.635019" xlink:href="#mc0a7c5899c" y="464.955066"/>
     <use style="fill:#008000;stroke:#008000;" x="200.740856" xlink:href="#mc0a7c5899c" y="442.974449"/>
     <use style="fill:#008000;stroke:#008000;" x="208.846693" xlink:href="#mc0a7c5899c" y="420.993833"/>
     <use style="fill:#008000;stroke:#008000;" x="216.952529" xlink:href="#mc0a7c5899c" y="399.013216"/>
     <use style="fill:#008000;stroke:#008000;" x="225.058366" xlink:href="#mc0a7c5899c" y="379.47489"/>
     <use style="fill:#008000;stroke:#008000;" x="233.164202" xlink:href="#mc0a7c5899c" y="359.936564"/>
     <use style="fill:#008000;stroke:#008000;" x="241.270039" xlink:href="#mc0a7c5899c" y="342.840529"/>
     <use style="fill:#008000;stroke:#008000;" x="249.375875" xlink:href="#mc0a7c5899c" y="325.744493"/>
     <use style="fill:#008000;stroke:#008000;" x="257.481712" xlink:href="#mc0a7c5899c" y="311.090749"/>
     <use style="fill:#008000;stroke:#008000;" x="265.587549" xlink:href="#mc0a7c5899c" y="293.994714"/>
     <use style="fill:#008000;stroke:#008000;" x="273.693385" xlink:href="#mc0a7c5899c" y="279.340969"/>
     <use style="fill:#008000;stroke:#008000;" x="281.799222" xlink:href="#mc0a7c5899c" y="267.129515"/>
     <use style="fill:#008000;stroke:#008000;" x="289.905058" xlink:href="#mc0a7c5899c" y="252.475771"/>
     <use style="fill:#008000;stroke:#008000;" x="298.010895" xlink:href="#mc0a7c5899c" y="245.148899"/>
     <use style="fill:#008000;stroke:#008000;" x="306.116732" xlink:href="#mc0a7c5899c" y="232.937445"/>
     <use style="fill:#008000;stroke:#008000;" x="314.222568" xlink:href="#mc0a7c5899c" y="220.725991"/>
     <use style="fill:#008000;stroke:#008000;" x="322.328405" xlink:href="#mc0a7c5899c" y="210.956828"/>
     <use style="fill:#008000;stroke:#008000;" x="330.434241" xlink:href="#mc0a7c5899c" y="201.187665"/>
     <use style="fill:#008000;stroke:#008000;" x="338.540078" xlink:href="#mc0a7c5899c" y="191.418502"/>
     <use style="fill:#008000;stroke:#008000;" x="346.645914" xlink:href="#mc0a7c5899c" y="184.09163"/>
     <use style="fill:#008000;stroke:#008000;" x="354.751751" xlink:href="#mc0a7c5899c" y="174.322467"/>
     <use style="fill:#008000;stroke:#008000;" x="362.857588" xlink:href="#mc0a7c5899c" y="166.995595"/>
     <use style="fill:#008000;stroke:#008000;" x="370.963424" xlink:href="#mc0a7c5899c" y="157.226432"/>
     <use style="fill:#008000;stroke:#008000;" x="379.069261" xlink:href="#mc0a7c5899c" y="154.784141"/>
     <use style="fill:#008000;stroke:#008000;" x="387.175097" xlink:href="#mc0a7c5899c" y="145.014978"/>
     <use style="fill:#008000;stroke:#008000;" x="395.280934" xlink:href="#mc0a7c5899c" y="140.130396"/>
     <use style="fill:#008000;stroke:#008000;" x="403.38677" xlink:href="#mc0a7c5899c" y="132.803524"/>
     <use style="fill:#008000;stroke:#008000;" x="411.492607" xlink:href="#mc0a7c5899c" y="130.361233"/>
     <use style="fill:#008000;stroke:#008000;" x="419.598444" xlink:href="#mc0a7c5899c" y="127.918943"/>
     <use style="fill:#008000;stroke:#008000;" x="427.70428" xlink:href="#mc0a7c5899c" y="120.59207"/>
     <use style="fill:#008000;stroke:#008000;" x="435.810117" xlink:href="#mc0a7c5899c" y="113.265198"/>
     <use style="fill:#008000;stroke:#008000;" x="443.915953" xlink:href="#mc0a7c5899c" y="110.822907"/>
     <use style="fill:#008000;stroke:#008000;" x="452.02179" xlink:href="#mc0a7c5899c" y="105.938326"/>
     <use style="fill:#008000;stroke:#008000;" x="460.127626" xlink:href="#mc0a7c5899c" y="103.496035"/>
     <use style="fill:#008000;stroke:#008000;" x="468.233463" xlink:href="#mc0a7c5899c" y="98.611454"/>
     <use style="fill:#008000;stroke:#008000;" x="476.3393" xlink:href="#mc0a7c5899c" y="96.169163"/>
     <use style="fill:#008000;stroke:#008000;" x="484.445136" xlink:href="#mc0a7c5899c" y="93.726872"/>
     <use style="fill:#008000;stroke:#008000;" x="492.550973" xlink:href="#mc0a7c5899c" y="88.842291"/>
     <use style="fill:#008000;stroke:#008000;" x="500.656809" xlink:href="#mc0a7c5899c" y="113.265198"/>
     <use style="fill:#008000;stroke:#008000;" x="508.762646" xlink:href="#mc0a7c5899c" y="142.572687"/>
     <use style="fill:#008000;stroke:#008000;" x="516.868482" xlink:href="#mc0a7c5899c" y="169.437885"/>
     <use style="fill:#008000;stroke:#008000;" x="524.974319" xlink:href="#mc0a7c5899c" y="196.303084"/>
     <use style="fill:#008000;stroke:#008000;" x="533.080156" xlink:href="#mc0a7c5899c" y="220.725991"/>
     <use style="fill:#008000;stroke:#008000;" x="541.185992" xlink:href="#mc0a7c5899c" y="242.706608"/>
     <use style="fill:#008000;stroke:#008000;" x="549.291829" xlink:href="#mc0a7c5899c" y="264.687225"/>
     <use style="fill:#008000;stroke:#008000;" x="557.397665" xlink:href="#mc0a7c5899c" y="289.110132"/>
     <use style="fill:#008000;stroke:#008000;" x="565.503502" xlink:href="#mc0a7c5899c" y="306.206167"/>
     <use style="fill:#008000;stroke:#008000;" x="573.609339" xlink:href="#mc0a7c5899c" y="323.302203"/>
     <use style="fill:#008000;stroke:#008000;" x="581.715175" xlink:href="#mc0a7c5899c" y="342.840529"/>
     <use style="fill:#008000;stroke:#008000;" x="589.821012" xlink:href="#mc0a7c5899c" y="357.494273"/>
     <use style="fill:#008000;stroke:#008000;" x="597.926848" xlink:href="#mc0a7c5899c" y="374.590308"/>
     <use style="fill:#008000;stroke:#008000;" x="606.032685" xlink:href="#mc0a7c5899c" y="386.801762"/>
     <use style="fill:#008000;stroke:#008000;" x="614.138521" xlink:href="#mc0a7c5899c" y="401.455507"/>
     <use style="fill:#008000;stroke:#008000;" x="622.244358" xlink:href="#mc0a7c5899c" y="416.109251"/>
     <use style="fill:#008000;stroke:#008000;" x="630.350195" xlink:href="#mc0a7c5899c" y="430.762996"/>
     <use style="fill:#008000;stroke:#008000;" x="638.456031" xlink:href="#mc0a7c5899c" y="440.532159"/>
     <use style="fill:#008000;stroke:#008000;" x="646.561868" xlink:href="#mc0a7c5899c" y="450.301322"/>
     <use style="fill:#008000;stroke:#008000;" x="654.667704" xlink:href="#mc0a7c5899c" y="462.512775"/>
     <use style="fill:#008000;stroke:#008000;" x="662.773541" xlink:href="#mc0a7c5899c" y="472.281938"/>
     <use style="fill:#008000;stroke:#008000;" x="670.879377" xlink:href="#mc0a7c5899c" y="482.051101"/>
     <use style="fill:#008000;stroke:#008000;" x="678.985214" xlink:href="#mc0a7c5899c" y="491.820264"/>
     <use style="fill:#008000;stroke:#008000;" x="687.091051" xlink:href="#mc0a7c5899c" y="499.147137"/>
     <use style="fill:#008000;stroke:#008000;" x="695.196887" xlink:href="#mc0a7c5899c" y="508.9163"/>
     <use style="fill:#008000;stroke:#008000;" x="703.302724" xlink:href="#mc0a7c5899c" y="513.800881"/>
     <use style="fill:#008000;stroke:#008000;" x="711.40856" xlink:href="#mc0a7c5899c" y="523.570044"/>
     <use style="fill:#008000;stroke:#008000;" x="719.514397" xlink:href="#mc0a7c5899c" y="528.454626"/>
     <use style="fill:#008000;stroke:#008000;" x="727.620233" xlink:href="#mc0a7c5899c" y="535.781498"/>
     <use style="fill:#008000;stroke:#008000;" x="735.72607" xlink:href="#mc0a7c5899c" y="543.10837"/>
     <use style="fill:#008000;stroke:#008000;" x="743.831907" xlink:href="#mc0a7c5899c" y="547.992952"/>
     <use style="fill:#008000;stroke:#008000;" x="751.937743" xlink:href="#mc0a7c5899c" y="555.319824"/>
     <use style="fill:#008000;stroke:#008000;" x="760.04358" xlink:href="#mc0a7c5899c" y="557.762115"/>
     <use style="fill:#008000;stroke:#008000;" x="768.149416" xlink:href="#mc0a7c5899c" y="562.646696"/>
     <use style="fill:#008000;stroke:#008000;" x="776.255253" xlink:href="#mc0a7c5899c" y="567.531278"/>
     <use style="fill:#008000;stroke:#008000;" x="784.361089" xlink:href="#mc0a7c5899c" y="574.85815"/>
     <use style="fill:#008000;stroke:#008000;" x="792.466926" xlink:href="#mc0a7c5899c" y="577.300441"/>
     <use style="fill:#008000;stroke:#008000;" x="800.572763" xlink:href="#mc0a7c5899c" y="579.742731"/>
     <use style="fill:#008000;stroke:#008000;" x="808.678599" xlink:href="#mc0a7c5899c" y="582.185022"/>
     <use style="fill:#008000;stroke:#008000;" x="816.784436" xlink:href="#mc0a7c5899c" y="587.069604"/>
     <use style="fill:#008000;stroke:#008000;" x="824.890272" xlink:href="#mc0a7c5899c" y="591.954185"/>
     <use style="fill:#008000;stroke:#008000;" x="832.996109" xlink:href="#mc0a7c5899c" y="596.838767"/>
     <use style="fill:#008000;stroke:#008000;" x="841.101946" xlink:href="#mc0a7c5899c" y="599.281057"/>
     <use style="fill:#008000;stroke:#008000;" x="849.207782" xlink:href="#mc0a7c5899c" y="601.723348"/>
     <use style="fill:#008000;stroke:#008000;" x="857.313619" xlink:href="#mc0a7c5899c" y="601.723348"/>
     <use style="fill:#008000;stroke:#008000;" x="865.419455" xlink:href="#mc0a7c5899c" y="606.60793"/>
     <use style="fill:#008000;stroke:#008000;" x="873.525292" xlink:href="#mc0a7c5899c" y="609.05022"/>
     <use style="fill:#008000;stroke:#008000;" x="881.631128" xlink:href="#mc0a7c5899c" y="611.492511"/>
     <use style="fill:#008000;stroke:#008000;" x="889.736965" xlink:href="#mc0a7c5899c" y="611.492511"/>
     <use style="fill:#008000;stroke:#008000;" x="897.842802" xlink:href="#mc0a7c5899c" y="613.934802"/>
     <use style="fill:#008000;stroke:#008000;" x="905.948638" xlink:href="#mc0a7c5899c" y="618.819383"/>
     <use style="fill:#008000;stroke:#008000;" x="914.054475" xlink:href="#mc0a7c5899c" y="621.261674"/>
     <use style="fill:#008000;stroke:#008000;" x="922.160311" xlink:href="#mc0a7c5899c" y="621.261674"/>
     <use style="fill:#008000;stroke:#008000;" x="930.266148" xlink:href="#mc0a7c5899c" y="621.261674"/>
     <use style="fill:#008000;stroke:#008000;" x="938.371984" xlink:href="#mc0a7c5899c" y="623.703965"/>
     <use style="fill:#008000;stroke:#008000;" x="946.477821" xlink:href="#mc0a7c5899c" y="623.703965"/>
     <use style="fill:#008000;stroke:#008000;" x="954.583658" xlink:href="#mc0a7c5899c" y="626.146256"/>
     <use style="fill:#008000;stroke:#008000;" x="962.689494" xlink:href="#mc0a7c5899c" y="626.146256"/>
     <use style="fill:#008000;stroke:#008000;" x="970.795331" xlink:href="#mc0a7c5899c" y="626.146256"/>
     <use style="fill:#008000;stroke:#008000;" x="978.901167" xlink:href="#mc0a7c5899c" y="631.030837"/>
     <use style="fill:#008000;stroke:#008000;" x="987.007004" xlink:href="#mc0a7c5899c" y="631.030837"/>
     <use style="fill:#008000;stroke:#008000;" x="995.11284" xlink:href="#mc0a7c5899c" y="633.473128"/>
     <use style="fill:#008000;stroke:#008000;" x="1003.218677" xlink:href="#mc0a7c5899c" y="633.473128"/>
     <use style="fill:#008000;stroke:#008000;" x="1011.324514" xlink:href="#mc0a7c5899c" y="633.473128"/>
     <use style="fill:#008000;stroke:#008000;" x="1019.43035" xlink:href="#mc0a7c5899c" y="633.473128"/>
     <use style="fill:#008000;stroke:#008000;" x="1027.536187" xlink:href="#mc0a7c5899c" y="635.915419"/>
     <use style="fill:#008000;stroke:#008000;" x="1035.642023" xlink:href="#mc0a7c5899c" y="635.915419"/>
    </g>
   </g>
   <g id="patch_3">
    <path d="M 144 640.8 
L 144 86.4 
" style="fill:none;stroke:#000000;stroke-linecap:square;stroke-linejoin:miter;stroke-width:0.8;"/>
   </g>
   <g id="patch_4">
    <path d="M 1036.8 640.8 
L 1036.8 86.4 
" style="fill:none;stroke:#000000;stroke-linecap:square;stroke-linejoin:miter;stroke-width:0.8;"/>
   </g>
   <g id="patch_5">
    <path d="M 144 640.8 
L 1036.8 640.8 
" style="fill:none;stroke:#000000;stroke-linecap:square;stroke-linejoin:miter;stroke-width:0.8;"/>
   </g>
   <g id="patch_6">
    <path d="M 144 86.4 
L 1036.8 86.4 
" style="fill:none;stroke:#000000;stroke-linecap:square;stroke-linejoin:miter;stroke-width:0.8;"/>
   </g>
   <g id="text_14">
    <g id="patch_7">
     <path d="M 854.24 205.31352 
L 974.744688 205.31352 
L 974.744688 165.23977 
L 854.24 165.23977 
z
" style="fill:#ffffff;stroke:#000000;stroke-linejoin:miter;"/>
    </g>
    <!-- Total time: 54.896 -->
    <g transform="translate(858.24 176.838208)scale(0.1 -0.1)">
     <defs>
      <path d="M 750 794 
L 1409 794 
L 1409 0 
L 750 0 
L 750 794 
z
M 750 3309 
L 1409 3309 
L 1409 2516 
L 750 2516 
L 750 3309 
z
" id="DejaVuSans-3a" transform="scale(0.015625)"/>
      <path d="M 2034 2216 
Q 1584 2216 1326 1975 
Q 1069 1734 1069 1313 
Q 1069 891 1326 650 
Q 1584 409 2034 409 
Q 2484 409 2743 651 
Q 3003 894 3003 1313 
Q 3003 1734 2745 1975 
Q 2488 2216 2034 2216 
z
M 1403 2484 
Q 997 2584 770 2862 
Q 544 3141 544 3541 
Q 544 4100 942 4425 
Q 1341 4750 2034 4750 
Q 2731 4750 3128 4425 
Q 3525 4100 3525 3541 
Q 3525 3141 3298 2862 
Q 3072 2584 2669 2484 
Q 3125 2378 3379 2068 
Q 3634 1759 3634 1313 
Q 3634 634 3220 271 
Q 2806 -91 2034 -91 
Q 1263 -91 848 271 
Q 434 634 434 1313 
Q 434 1759 690 2068 
Q 947 2378 1403 2484 
z
M 1172 3481 
Q 1172 3119 1398 2916 
Q 1625 2713 2034 2713 
Q 2441 2713 2670 2916 
Q 2900 3119 2900 3481 
Q 2900 3844 2670 4047 
Q 2441 4250 2034 4250 
Q 1625 4250 1398 4047 
Q 1172 3844 1172 3481 
z
" id="DejaVuSans-38" transform="scale(0.015625)"/>
      <path d="M 703 97 
L 703 672 
Q 941 559 1184 500 
Q 1428 441 1663 441 
Q 2288 441 2617 861 
Q 2947 1281 2994 2138 
Q 2813 1869 2534 1725 
Q 2256 1581 1919 1581 
Q 1219 1581 811 2004 
Q 403 2428 403 3163 
Q 403 3881 828 4315 
Q 1253 4750 1959 4750 
Q 2769 4750 3195 4129 
Q 3622 3509 3622 2328 
Q 3622 1225 3098 567 
Q 2575 -91 1691 -91 
Q 1453 -91 1209 -44 
Q 966 3 703 97 
z
M 1959 2075 
Q 2384 2075 2632 2365 
Q 2881 2656 2881 3163 
Q 2881 3666 2632 3958 
Q 2384 4250 1959 4250 
Q 1534 4250 1286 3958 
Q 1038 3666 1038 3163 
Q 1038 2656 1286 2365 
Q 1534 2075 1959 2075 
z
" id="DejaVuSans-39" transform="scale(0.015625)"/>
      <path d="M 2113 2584 
Q 1688 2584 1439 2293 
Q 1191 2003 1191 1497 
Q 1191 994 1439 701 
Q 1688 409 2113 409 
Q 2538 409 2786 701 
Q 3034 994 3034 1497 
Q 3034 2003 2786 2293 
Q 2538 2584 2113 2584 
z
M 3366 4563 
L 3366 3988 
Q 3128 4100 2886 4159 
Q 2644 4219 2406 4219 
Q 1781 4219 1451 3797 
Q 1122 3375 1075 2522 
Q 1259 2794 1537 2939 
Q 1816 3084 2150 3084 
Q 2853 3084 3261 2657 
Q 3669 2231 3669 1497 
Q 3669 778 3244 343 
Q 2819 -91 2113 -91 
Q 1303 -91 875 529 
Q 447 1150 447 2328 
Q 447 3434 972 4092 
Q 1497 4750 2381 4750 
Q 2619 4750 2861 4703 
Q 3103 4656 3366 4563 
z
" id="DejaVuSans-36" transform="scale(0.015625)"/>
     </defs>
     <use xlink:href="#DejaVuSans-54"/>
     <use x="44.083984" xlink:href="#DejaVuSans-6f"/>
     <use x="105.265625" xlink:href="#DejaVuSans-74"/>
     <use x="144.474609" xlink:href="#DejaVuSans-61"/>
     <use x="205.753906" xlink:href="#DejaVuSans-6c"/>
     <use x="233.537109" xlink:href="#DejaVuSans-20"/>
     <use x="265.324219" xlink:href="#DejaVuSans-74"/>
     <use x="304.533203" xlink:href="#DejaVuSans-69"/>
     <use x="332.316406" xlink:href="#DejaVuSans-6d"/>
     <use x="429.728516" xlink:href="#DejaVuSans-65"/>
     <use x="491.251953" xlink:href="#DejaVuSans-3a"/>
     <use x="524.943359" xlink:href="#DejaVuSans-20"/>
     <use x="556.730469" xlink:href="#DejaVuSans-35"/>
     <use x="620.353516" xlink:href="#DejaVuSans-34"/>
     <use x="683.976562" xlink:href="#DejaVuSans-2e"/>
     <use x="715.763672" xlink:href="#DejaVuSans-38"/>
     <use x="779.386719" xlink:href="#DejaVuSans-39"/>
     <use x="843.009766" xlink:href="#DejaVuSans-36"/>
    </g>
    <!-- Charging time: 21.574 -->
    <g transform="translate(858.24 188.03602)scale(0.1 -0.1)">
     <defs>
      <path d="M 4122 4306 
L 4122 3641 
Q 3803 3938 3442 4084 
Q 3081 4231 2675 4231 
Q 1875 4231 1450 3742 
Q 1025 3253 1025 2328 
Q 1025 1406 1450 917 
Q 1875 428 2675 428 
Q 3081 428 3442 575 
Q 3803 722 4122 1019 
L 4122 359 
Q 3791 134 3420 21 
Q 3050 -91 2638 -91 
Q 1578 -91 968 557 
Q 359 1206 359 2328 
Q 359 3453 968 4101 
Q 1578 4750 2638 4750 
Q 3056 4750 3426 4639 
Q 3797 4528 4122 4306 
z
" id="DejaVuSans-43" transform="scale(0.015625)"/>
      <path d="M 3513 2113 
L 3513 0 
L 2938 0 
L 2938 2094 
Q 2938 2591 2744 2837 
Q 2550 3084 2163 3084 
Q 1697 3084 1428 2787 
Q 1159 2491 1159 1978 
L 1159 0 
L 581 0 
L 581 4863 
L 1159 4863 
L 1159 2956 
Q 1366 3272 1645 3428 
Q 1925 3584 2291 3584 
Q 2894 3584 3203 3211 
Q 3513 2838 3513 2113 
z
" id="DejaVuSans-68" transform="scale(0.015625)"/>
      <path d="M 2631 2963 
Q 2534 3019 2420 3045 
Q 2306 3072 2169 3072 
Q 1681 3072 1420 2755 
Q 1159 2438 1159 1844 
L 1159 0 
L 581 0 
L 581 3500 
L 1159 3500 
L 1159 2956 
Q 1341 3275 1631 3429 
Q 1922 3584 2338 3584 
Q 2397 3584 2469 3576 
Q 2541 3569 2628 3553 
L 2631 2963 
z
" id="DejaVuSans-72" transform="scale(0.015625)"/>
      <path d="M 3513 2113 
L 3513 0 
L 2938 0 
L 2938 2094 
Q 2938 2591 2744 2837 
Q 2550 3084 2163 3084 
Q 1697 3084 1428 2787 
Q 1159 2491 1159 1978 
L 1159 0 
L 581 0 
L 581 3500 
L 1159 3500 
L 1159 2956 
Q 1366 3272 1645 3428 
Q 1925 3584 2291 3584 
Q 2894 3584 3203 3211 
Q 3513 2838 3513 2113 
z
" id="DejaVuSans-6e" transform="scale(0.015625)"/>
      <path d="M 525 4666 
L 3525 4666 
L 3525 4397 
L 1831 0 
L 1172 0 
L 2766 4134 
L 525 4134 
L 525 4666 
z
" id="DejaVuSans-37" transform="scale(0.015625)"/>
     </defs>
     <use xlink:href="#DejaVuSans-43"/>
     <use x="69.824219" xlink:href="#DejaVuSans-68"/>
     <use x="133.203125" xlink:href="#DejaVuSans-61"/>
     <use x="194.482422" xlink:href="#DejaVuSans-72"/>
     <use x="233.845703" xlink:href="#DejaVuSans-67"/>
     <use x="297.322266" xlink:href="#DejaVuSans-69"/>
     <use x="325.105469" xlink:href="#DejaVuSans-6e"/>
     <use x="388.484375" xlink:href="#DejaVuSans-67"/>
     <use x="451.960938" xlink:href="#DejaVuSans-20"/>
     <use x="483.748047" xlink:href="#DejaVuSans-74"/>
     <use x="522.957031" xlink:href="#DejaVuSans-69"/>
     <use x="550.740234" xlink:href="#DejaVuSans-6d"/>
     <use x="648.152344" xlink:href="#DejaVuSans-65"/>
     <use x="709.675781" xlink:href="#DejaVuSans-3a"/>
     <use x="743.367188" xlink:href="#DejaVuSans-20"/>
     <use x="775.154297" xlink:href="#DejaVuSans-32"/>
     <use x="838.777344" xlink:href="#DejaVuSans-31"/>
     <use x="902.400391" xlink:href="#DejaVuSans-2e"/>
     <use x="934.1875" xlink:href="#DejaVuSans-35"/>
     <use x="997.810547" xlink:href="#DejaVuSans-37"/>
     <use x="1061.433594" xlink:href="#DejaVuSans-34"/>
    </g>
    <!-- Discharging: 33.322 -->
    <g transform="translate(858.24 199.233833)scale(0.1 -0.1)">
     <defs>
      <path d="M 1259 4147 
L 1259 519 
L 2022 519 
Q 2988 519 3436 956 
Q 3884 1394 3884 2338 
Q 3884 3275 3436 3711 
Q 2988 4147 2022 4147 
L 1259 4147 
z
M 628 4666 
L 1925 4666 
Q 3281 4666 3915 4102 
Q 4550 3538 4550 2338 
Q 4550 1131 3912 565 
Q 3275 0 1925 0 
L 628 0 
L 628 4666 
z
" id="DejaVuSans-44" transform="scale(0.015625)"/>
     </defs>
     <use xlink:href="#DejaVuSans-44"/>
     <use x="77.001953" xlink:href="#DejaVuSans-69"/>
     <use x="104.785156" xlink:href="#DejaVuSans-73"/>
     <use x="156.884766" xlink:href="#DejaVuSans-63"/>
     <use x="211.865234" xlink:href="#DejaVuSans-68"/>
     <use x="275.244141" xlink:href="#DejaVuSans-61"/>
     <use x="336.523438" xlink:href="#DejaVuSans-72"/>
     <use x="375.886719" xlink:href="#DejaVuSans-67"/>
     <use x="439.363281" xlink:href="#DejaVuSans-69"/>
     <use x="467.146484" xlink:href="#DejaVuSans-6e"/>
     <use x="530.525391" xlink:href="#DejaVuSans-67"/>
     <use x="594.001953" xlink:href="#DejaVuSans-3a"/>
     <use x="627.693359" xlink:href="#DejaVuSans-20"/>
     <use x="659.480469" xlink:href="#DejaVuSans-33"/>
     <use x="723.103516" xlink:href="#DejaVuSans-33"/>
     <use x="786.726562" xlink:href="#DejaVuSans-2e"/>
     <use x="818.513672" xlink:href="#DejaVuSans-33"/>
     <use x="882.136719" xlink:href="#DejaVuSans-32"/>
     <use x="945.759766" xlink:href="#DejaVuSans-32"/>
    </g>
   </g>
   <g id="text_15">
    <!-- Voltage on time -->
    <g transform="translate(543.049688 80.4)scale(0.12 -0.12)">
     <use xlink:href="#DejaVuSans-56"/>
     <use x="60.658203" xlink:href="#DejaVuSans-6f"/>
     <use x="121.839844" xlink:href="#DejaVuSans-6c"/>
     <use x="149.623047" xlink:href="#DejaVuSans-74"/>
     <use x="188.832031" xlink:href="#DejaVuSans-61"/>
     <use x="250.111328" xlink:href="#DejaVuSans-67"/>
     <use x="313.587891" xlink:href="#DejaVuSans-65"/>
     <use x="375.111328" xlink:href="#DejaVuSans-20"/>
     <use x="406.898438" xlink:href="#DejaVuSans-6f"/>
     <use x="468.080078" xlink:href="#DejaVuSans-6e"/>
     <use x="531.458984" xlink:href="#DejaVuSans-20"/>
     <use x="563.246094" xlink:href="#DejaVuSans-74"/>
     <use x="602.455078" xlink:href="#DejaVuSans-69"/>
     <use x="630.238281" xlink:href="#DejaVuSans-6d"/>
     <use x="727.650391" xlink:href="#DejaVuSans-65"/>
    </g>
   </g>
   <g id="legend_1">
    <g id="patch_8">
     <path d="M 979.235937 109.078125 
L 1029.8 109.078125 
Q 1031.8 109.078125 1031.8 107.078125 
L 1031.8 93.4 
Q 1031.8 91.4 1029.8 91.4 
L 979.235937 91.4 
Q 977.235937 91.4 977.235937 93.4 
L 977.235937 107.078125 
Q 977.235937 109.078125 979.235937 109.078125 
z
" style="fill:#ffffff;opacity:0.8;stroke:#cccccc;stroke-linejoin:miter;"/>
    </g>
    <g id="line2d_116">
     <path d="M 981.235937 99.498438 
L 1001.235937 99.498438 
" style="fill:none;stroke:#008000;stroke-linecap:square;stroke-width:2;"/>
    </g>
    <g id="line2d_117">
     <g>
      <use style="fill:#008000;stroke:#008000;" x="991.235937" xlink:href="#mc0a7c5899c" y="99.498438"/>
     </g>
    </g>
    <g id="text_16">
     <!-- V(t) -->
     <g transform="translate(1009.235937 102.998438)scale(0.1 -0.1)">
      <defs>
       <path d="M 1984 4856 
Q 1566 4138 1362 3434 
Q 1159 2731 1159 2009 
Q 1159 1288 1364 580 
Q 1569 -128 1984 -844 
L 1484 -844 
Q 1016 -109 783 600 
Q 550 1309 550 2009 
Q 550 2706 781 3412 
Q 1013 4119 1484 4856 
L 1984 4856 
z
" id="DejaVuSans-28" transform="scale(0.015625)"/>
       <path d="M 513 4856 
L 1013 4856 
Q 1481 4119 1714 3412 
Q 1947 2706 1947 2009 
Q 1947 1309 1714 600 
Q 1481 -109 1013 -844 
L 513 -844 
Q 928 -128 1133 580 
Q 1338 1288 1338 2009 
Q 1338 2731 1133 3434 
Q 928 4138 513 4856 
z
" id="DejaVuSans-29" transform="scale(0.015625)"/>
      </defs>
      <use xlink:href="#DejaVuSans-56"/>
      <use x="68.408203" xlink:href="#DejaVuSans-28"/>
      <use x="107.421875" xlink:href="#DejaVuSans-74"/>
      <use x="146.630859" xlink:href="#DejaVuSans-29"/>
     </g>
    </g>
   </g>
  </g>
 </g>
 <defs>
  <clipPath id="pbabc284c38">
   <rect height="554.4" width="892.8" x="144" y="86.4"/>
  </clipPath>
 </defs>
</svg>
